<?xml version="1.0" standalone="no"?><!DOCTYPE svg PUBLIC "-//W3C//DTD SVG 1.1//EN" "http://www.w3.org/Graphics/SVG/1.1/DTD/svg11.dtd"><svg t="1769650016384" class="icon" viewBox="0 0 1024 1024" version="1.1" xmlns="http://www.w3.org/2000/svg" p-id="7833" xmlns:xlink="http://www.w3.org/1999/xlink" width="600" height="600"><path d="M856.064 475.136H672.768c-71.68 0-131.072-58.368-131.072-131.072V160.768c0-71.68 58.368-131.072 131.072-131.072h183.296c71.68 0 131.072 58.368 131.072 131.072v183.296c-1.024 71.68-59.392 131.072-131.072 131.072zM322.56 1003.52H175.104c-82.944 0-151.552-67.584-151.552-151.552V704.512c0-82.944 68.608-151.552 151.552-151.552H322.56c83.968 0 151.552 67.584 151.552 151.552v147.456c0 83.968-67.584 151.552-151.552 151.552z m-147.456-358.4c-32.768 0-59.392 26.624-59.392 59.392v147.456c0 32.768 26.624 59.392 59.392 59.392H322.56c32.768 0 59.392-26.624 59.392-59.392V704.512c0-32.768-26.624-59.392-59.392-59.392H175.104zM322.56 478.208H175.104c-82.944 0-151.552-68.608-151.552-151.552v-148.48c0-82.944 68.608-150.528 151.552-150.528H322.56c83.968 0 151.552 67.584 151.552 151.552v147.456c0 82.944-67.584 151.552-151.552 151.552zM175.104 118.784c-32.768 0-59.392 26.624-59.392 59.392v147.456c0 32.768 26.624 59.392 59.392 59.392H322.56c32.768 0 59.392-26.624 59.392-59.392V178.176c0-32.768-26.624-59.392-59.392-59.392H175.104zM843.776 998.4H696.32c-83.968 0-151.552-67.584-151.552-151.552V699.392c0-83.968 67.584-151.552 151.552-151.552h147.456c83.968 0 151.552 67.584 151.552 151.552v147.456c0 83.968-68.608 151.552-151.552 151.552zM696.32 640c-32.768 0-59.392 26.624-59.392 59.392v147.456c0 32.768 26.624 59.392 59.392 59.392h147.456c32.768 0 59.392-26.624 59.392-59.392V699.392c0-32.768-26.624-59.392-59.392-59.392z" p-id="7834"></path></svg>