<?xml version="1.0" standalone="no"?><!DOCTYPE svg PUBLIC "-//W3C//DTD SVG 1.1//EN" "http://www.w3.org/Graphics/SVG/1.1/DTD/svg11.dtd"><svg t="1769585318909" class="icon" viewBox="0 0 1024 1024" version="1.1" xmlns="http://www.w3.org/2000/svg" p-id="3500" xmlns:xlink="http://www.w3.org/1999/xlink" width="600" height="600"><path d="M615.878882 177.494507l42.303478-61.521169c1.811252-2.619664 1.146103-6.252401-1.473561-8.063653l-1.054005-0.726547c-2.619664-1.821485-6.231935-1.146103-8.043187 1.473561l-43.521213 63.291488c-28.427446-12.361539-60.139705-19.268856-93.601818-19.268856-31.753191 0-61.950957 6.221702-89.232301 17.426905l-41.587164-60.477396c-1.801019-2.619664-5.423523-3.284813-8.043187-1.473561l-1.054005 0.726547c-2.619664 1.811252-3.284813 5.443989-1.483794 8.073886l40.215934 58.461483c-63.23009 30.300097-108.664885 88.075964-117.915573 156.299789l438.20018 0C720.552873 265.017886 676.919097 208.296023 615.878882 177.494507zM418.217057 265.621637c-12.054547 0-21.837354-9.813506-21.837354-21.908986 0-12.095479 9.782807-21.898753 21.837354-21.898753 12.06478 0 21.837354 9.803273 21.837354 21.898753C440.054411 255.80813 430.281837 265.621637 418.217057 265.621637zM606.710059 265.621637c-12.054547 0-21.837354-9.813506-21.837354-21.908986 0-12.095479 9.782807-21.898753 21.837354-21.898753 12.06478 0 21.837354 9.803273 21.837354 21.898753C628.547413 255.80813 618.774839 265.621637 606.710059 265.621637z" p-id="3501"></path><path d="M260.904195 419.506423l0 179.446975c0 30.760584-19.596314 55.933917-43.562145 55.933917l-9.680477 0c-23.955598 0-43.562145-25.173332-43.562145-55.933917l0-179.446975c0-30.760584 19.606547-55.923684 43.562145-55.923684l9.680477 0C241.307881 363.582739 260.904195 388.745838 260.904195 419.506423z" p-id="3502"></path><path d="M859.896478 420.570661l0 179.446975c0 30.770817-19.596314 55.933917-43.562145 55.933917l-9.680477 0c-23.955598 0-43.562145-25.163099-43.562145-55.933917l0-179.446975c0-30.760584 19.606547-55.923684 43.562145-55.923684l9.680477 0C840.300164 364.646977 859.896478 389.810077 859.896478 420.570661z" p-id="3503"></path><path d="M732.934878 360.830045l0 354.074178c0 24.579815-20.046568 44.687782-44.554752 44.687782l-36.746926 0 0 102.320387c0 30.760584-19.606547 55.923684-43.562145 55.923684l-9.680477 0c-23.955598 0-43.562145-25.163099-43.562145-55.923684l0-102.320387-81.864496 0 0 101.143585c0 30.760584-19.596314 55.933917-43.562145 55.933917l-9.680477 0c-23.955598 0-43.562145-25.173332-43.562145-55.933917l0-101.143585-40.062438 0c-24.508183 0-44.554752-20.107967-44.554752-44.687782l0-354.074178L732.934878 360.830045z" p-id="3504"></path></svg>