<?xml version="1.0" standalone="no"?><!DOCTYPE svg PUBLIC "-//W3C//DTD SVG 1.1//EN" "http://www.w3.org/Graphics/SVG/1.1/DTD/svg11.dtd"><svg t="1762266311509" class="icon" viewBox="0 0 1024 1024" version="1.1" xmlns="http://www.w3.org/2000/svg" p-id="6271" xmlns:xlink="http://www.w3.org/1999/xlink" width="200" height="200"><path d="M495 10.27q-43 0-82.5 19.5T347 84.27q-31 40-37 89.5t12.5 95.5q18.5 46 59.5 77-75 25-133.5 77.5T158 548.27q-34 73-34 155 0 17 1 32 2 13 11.5 21.5t22.5 7q13-1.5 21.5-11t7.5-23q-1-13.5-1-26.5 0-85 42-158 42-71 113-113 73-43 158-43 61 0 117 22.5t100 64.5q17 17 32 36 8 10 20.5 11.5t23-6q10.5-7.5 12-20.5t-6.5-23q-18-23-38-43-64-61-148-87 33-27 52-65.5t19-81.5q0-50-25.5-93T589 35.77q-43-25.5-94-25.5z m397 490q-9-8-21-8t-21 8l-188 188-84-83q-8-9-20.5-9t-21 8.5q-8.5 8.5-8.5 21t9 20.5l107 107q8 7 19.5 6.5t19.5-8.5l209-209q8-9 8-21t-8-21z m-397-429q35 0 64 17t46 46q17 29 17 63.5t-17 63.5q-17 29-46 46t-63.5 17q-34.5 0-63.5-17t-46-46q-17-29-17-63.5t17-63.5q17-29 46-46t63-17z" fill="#666666" p-id="6272"></path></svg>