<?xml version="1.0" standalone="no"?><!DOCTYPE svg PUBLIC "-//W3C//DTD SVG 1.1//EN" "http://www.w3.org/Graphics/SVG/1.1/DTD/svg11.dtd"><svg t="1761645784390" class="icon" viewBox="0 0 1024 1024" version="1.1" xmlns="http://www.w3.org/2000/svg" p-id="1327" xmlns:xlink="http://www.w3.org/1999/xlink" width="200" height="200"><path d="M196.402048 1024C114.385452 1024 47.658991 954.264585 47.658991 868.619164V68.908921h81.357984v799.710243c0 40.821046 30.231594 74.022852 67.385073 74.022852s67.385073-33.201806 67.385073-74.022852V374.569577h81.357985v494.049587c0 85.684163-66.726461 155.380836-148.743058 155.380836z" p-id="1328"></path><path d="M885.426691 1024H190.293742v-81.357984h695.132949a9.569249 9.569249 0 0 0 9.556334-9.556335V387.535198a9.569249 9.569249 0 0 0-9.556334-9.556335H354.378591a9.569249 9.569249 0 0 0-9.556335 9.556335v485.668424h-81.357984V387.535198a91.017631 91.017631 0 0 1 90.914319-90.914319h531.0481a91.017631 91.017631 0 0 1 90.914318 90.914319v545.550483a91.017631 91.017631 0 0 1-90.914318 90.914319z" p-id="1329"></path><path d="M850.597725 377.333165h-81.357984v-150.70598H542.677126a65.938709 65.938709 0 0 1-65.861226-65.861225V77.909955h81.357985v67.359246h226.343077a66.158247 66.158247 0 0 1 66.080763 66.080762z" p-id="1330"></path><path d="M129.016975 226.407647H47.658991V61.367165C47.658991 27.532575 74.907458 0 108.35463 0h387.418972c34.415719 0 62.42611 28.320327 62.42611 63.123465v95.317981h-81.357984V81.357984H129.016975z" p-id="1331"></path><path d="M728.483265 599.957021a10.214947 10.214947 0 0 0-8.23911-6.947714l-63.188035-9.18183-28.281585-57.260524a10.163291 10.163291 0 0 0-18.260347 0l-28.281585 57.260524-63.188035 9.2464a10.202033 10.202033 0 0 0-5.656317 17.408026l45.728353 44.566096-10.757333 62.942669a10.176205 10.176205 0 0 0 14.78649 10.679849l56.524428-29.702121 56.524428 29.702121a10.176205 10.176205 0 0 0 14.786491-10.731505l-10.783161-62.942669 45.728353-44.566096a10.331173 10.331173 0 0 0 2.582793-10.460312z m0 0" p-id="1332"></path></svg>