<?xml version="1.0" standalone="no"?><!DOCTYPE svg PUBLIC "-//W3C//DTD SVG 1.1//EN" "http://www.w3.org/Graphics/SVG/1.1/DTD/svg11.dtd"><svg t="1762986012329" class="icon" viewBox="0 0 1024 1024" version="1.1" xmlns="http://www.w3.org/2000/svg" p-id="5790" xmlns:xlink="http://www.w3.org/1999/xlink" width="200" height="200"><path d="M675.905141 0.00896H83.070567A81.918587 81.918587 0 0 0-0.0256 80.314775v863.370706A81.918587 81.918587 0 0 0 83.070567 1023.991296h592.834574a81.918587 81.918587 0 0 0 83.096166-80.305815V80.314775A81.918587 81.918587 0 0 0 675.905141 0.00896z m-74.545914 774.975432H157.437284a41.522484 41.522484 0 1 1 0-82.993769h443.921943a41.522484 41.522484 0 1 1 0 82.993769z m0-242.248622H157.437284a41.522484 41.522484 0 1 1 0-82.993768h443.921943a41.522484 41.522484 0 1 1 0 82.993768z m0-242.095024H157.437284a41.599282 41.599282 0 0 1 0-83.147365h443.921943a41.599282 41.599282 0 0 1 0 83.147365z m360.364983-166.141134h-134.116086V281.604102h77.797058a31.436258 31.436258 0 1 1 0 62.846916h-77.797058v120.317925h77.797058a31.436258 31.436258 0 1 1 0 62.846916h-77.797058v120.317924h77.797058a32.844233 32.844233 0 0 1 30.028282 15.026941 30.514674 30.514674 0 0 1 0 32.665036 32.844233 32.844233 0 0 1-30.028282 15.026941h-77.797058v188.847943h134.116086a61.976531 61.976531 0 0 0 62.232527-60.133363V185.247364a61.950931 61.950931 0 0 0-62.232527-60.747752z" p-id="5791"></path></svg>