<?xml version="1.0" standalone="no"?><!DOCTYPE svg PUBLIC "-//W3C//DTD SVG 1.1//EN" "http://www.w3.org/Graphics/SVG/1.1/DTD/svg11.dtd"><svg t="1762934021291" class="icon" viewBox="0 0 1024 1024" version="1.1" xmlns="http://www.w3.org/2000/svg" p-id="3548" xmlns:xlink="http://www.w3.org/1999/xlink" width="200" height="200"><path d="M832 704H384c-35.2 0-64-28.8-64-64V192c0-35.2 28.8-64 64-64h448c35.2 0 64 28.8 64 64v448c0 35.2-28.8 64-64 64zM384 192v448h448V192H384z" p-id="3549"></path><path d="M611.2 896H188.8c-32 0-60.8-28.8-60.8-60.8V412.8c0-32 28.8-60.8 60.8-60.8H256c19.2 0 32 12.8 32 32s-12.8 32-32 32H188.8L192 835.2l419.2-3.2-3.2-64c0-19.2 12.8-32 32-32s32 12.8 32 32v67.2c0 32-28.8 60.8-60.8 60.8zM736 320h-256c-19.2 0-32-12.8-32-32s12.8-32 32-32h256c19.2 0 32 12.8 32 32s-12.8 32-32 32zM736 448h-256c-19.2 0-32-12.8-32-32s12.8-32 32-32h256c19.2 0 32 12.8 32 32s-12.8 32-32 32z" p-id="3550"></path><path d="M736 576h-256c-19.2 0-32-12.8-32-32s12.8-32 32-32h256c19.2 0 32 12.8 32 32s-12.8 32-32 32z" p-id="3551"></path></svg>