<?xml version="1.0" standalone="no"?><!DOCTYPE svg PUBLIC "-//W3C//DTD SVG 1.1//EN" "http://www.w3.org/Graphics/SVG/1.1/DTD/svg11.dtd"><svg t="1764861983011" class="icon" viewBox="0 0 1024 1024" version="1.1" xmlns="http://www.w3.org/2000/svg" p-id="3334" xmlns:xlink="http://www.w3.org/1999/xlink" width="600" height="600"><path d="M458.64 119.072a84.176 84.176 0 0 1 106.72 0l366.912 300.4a32 32 0 0 1-40.544 49.52L524.816 168.592a20.176 20.176 0 0 0-25.632 0L132.272 468.992a32 32 0 1 1-40.544-49.52L458.64 119.072zM304.32 415.184c0-27.2 22-49.568 49.472-49.568h96.048a49.504 49.504 0 0 1 49.456 49.568v96.544c0 27.2-21.984 49.552-49.456 49.552H353.76a49.504 49.504 0 0 1-49.472-49.552V415.2z m64 14.432v67.68h66.976v-67.68H368.32z m-162.976 36.96a32 32 0 0 1 32 32v307.2c0 21.28 17.12 38.224 37.856 38.224h471.52a38.032 38.032 0 0 0 37.84-38.224v-307.2a32 32 0 1 1 64 0v307.2c0 56.304-45.44 102.224-101.856 102.224H275.2c-56.4 0-101.856-45.92-101.856-102.224v-307.2a32 32 0 0 1 32-32z m98.976 168.048c0-27.216 22-49.568 49.472-49.568h96.048a49.504 49.504 0 0 1 49.456 49.568v96.544c0 27.2-21.984 49.552-49.456 49.552H353.76a49.504 49.504 0 0 1-49.472-49.552v-96.544z m64 14.432v67.68h66.976v-67.68H368.32z m154.288-14.432c0-27.216 21.984-49.568 49.472-49.568h96.048a49.504 49.504 0 0 1 49.456 49.568v96.544c0 27.2-21.984 49.552-49.456 49.552h-96.048a49.504 49.504 0 0 1-49.472-49.552v-96.544z m64 14.432v67.68h66.976v-67.68h-66.976z" fill="#000000" p-id="3335"></path></svg>