<?xml version="1.0" standalone="no"?><!DOCTYPE svg PUBLIC "-//W3C//DTD SVG 1.1//EN" "http://www.w3.org/Graphics/SVG/1.1/DTD/svg11.dtd"><svg t="1762266464657" class="icon" viewBox="0 0 1173 1024" version="1.1" xmlns="http://www.w3.org/2000/svg" p-id="13041" xmlns:xlink="http://www.w3.org/1999/xlink" width="229.1015625" height="200"><path d="M786.371338 409.689208c0-46.239646-13.232567-79.283894-46.239645-112.328142s-66.088497-46.239646-112.328143-46.239646c-39.660532 0-79.283894 13.232567-112.328143 46.239646-26.427965 33.044248-46.239646 66.088497-46.239645 112.328142h317.172746z" p-id="13042"></path><path d="M1011.027624 667.426912c-6.616284-6.616284-13.232567-6.616284-19.811681-6.616284h-112.328143v-145.372391l85.900178-85.900178c6.616284-6.616284 6.616284-13.232567 6.616283-19.811681s0-13.232567-6.616283-19.811681c-6.616284-6.616284-13.232567-6.616284-19.811681-6.616283s-13.232567 0-19.811681 6.616283l-85.900178 85.900178h-416.305492L310.630803 363.486733c6.616284-6.616284 6.616284-13.232567 13.232568-13.232568 33.044248-39.660532 33.044248-46.239646 33.044248-46.239645v-19.848852c19.811681-19.811681 26.427965-33.044248 33.044249-33.044248 13.232567-6.616284 26.427965 0 33.044248 0s6.616284 6.616284 13.232567 13.232567l-6.616283 6.616284v6.616284l33.044248 26.427965h6.616284l46.239646-52.85593v-6.616284l-39.660533-26.427964h-6.616283v6.616283h-13.232568c-13.232567-6.616284-6.616284-19.811681-13.232567-26.427964s-13.232567-19.811681-19.811681-19.811681c-6.616284-6.616284-33.044248-26.427965-72.704781-39.660532-46.239646-13.232567-79.283894 0-85.900178 13.232567-6.616284 0-13.232567 13.232567 0 13.232567 6.616284 0 46.239646-6.616284 59.472214 0 13.232567 13.232567 26.427965 26.427965 33.044248 46.239646 0 19.811681 0 33.044248-26.427965 59.472213l-6.616283-6.616283h-6.616284s-6.616284 6.616284-33.044249 46.239645c-59.472213 52.855929-118.944426 112.328143-118.944426 112.328143v6.616284l52.85593 46.239645h6.616283s19.811681-26.427965 46.239646-66.088497l105.711859 105.711859v145.372391H264.316817c-6.616284 0-13.232567 0-19.811681 6.616284s-6.616284 13.232567-6.616283 19.811681c0 6.616284 0 13.232567 6.616283 19.811681 6.616284 13.232567 13.232567 19.811681 19.811681 19.811681h112.328143c0 52.855929 6.616284 99.132745 26.427965 132.176994l-99.132746 112.328142c-6.616284 6.616284-6.616284 13.232567-6.616283 19.811681s6.616284 13.232567 13.232567 19.811681c6.616284 6.616284 13.232567 6.616284 19.811681 6.616284s19.811681-6.616284 26.427965-13.232567l92.516461-99.132746 6.616284 6.616284c0 13.232567 6.616284 13.232567 13.232567 19.811681s19.811681 13.232567 33.044249 19.811681c13.232567 6.616284 26.427965 13.232567 39.660532 13.232568 19.811681 6.616284 33.044248 6.616284 52.855929 6.616283V535.212748h66.088497V977.946205c13.232567 0 33.044248 0 46.239646-6.616284s26.427965-6.616284 39.660532-13.232567 19.811681-13.232567 33.044249-19.811681 19.811681-13.232567 19.811681-13.232568l6.616283-6.616283 99.132746 99.132745c6.616284 6.616284 13.232567 6.616284 19.811681 6.616284s13.232567 0 19.811681-6.616284c6.616284-6.616284 6.616284-13.232567 6.616283-19.811681s0-13.232567-6.616283-19.811681l-99.132746-105.711859c19.811681-39.660532 33.044248-85.900178 33.044249-145.372391h112.328142c6.616284 0 13.232567 0 19.811681-6.616284s6.616284-13.232567 6.616284-19.811681c6.616284-19.811681 0-26.427965-6.616284-33.044248z" p-id="13043"></path></svg>