<?xml version="1.0" standalone="no"?><!DOCTYPE svg PUBLIC "-//W3C//DTD SVG 1.1//EN" "http://www.w3.org/Graphics/SVG/1.1/DTD/svg11.dtd"><svg t="1762267067180" class="icon" viewBox="0 0 1024 1024" version="1.1" xmlns="http://www.w3.org/2000/svg" p-id="25993" xmlns:xlink="http://www.w3.org/1999/xlink" width="200" height="200"><path d="M886.182752 717.265028L886.182752 707.922202C886.182752 509.238018 886.182752 310.549138 886.178055 111.864954 886.178055 84.738349 873.176073 71.797431 845.964917 71.797431L177.335193 71.797431C151.697615 71.797431 138.441982 85.151706 138.441982 110.991266L138.441982 916.306202C138.441982 942.033028 151.711706 955.241688 177.537174 955.241688 299.660917 955.241688 421.784661 955.227596 543.908404 955.260477 563.960954 955.265174 578.038606 967.501505 580.04433 986.393835 581.923229 1004.149431 568.094532 1021.162862 550.320147 1022.89145 547.985615 1023.116917 545.627596 1023.131009 543.28367 1023.131009 420.455339 1023.140404 297.627009 1023.239046 174.798679 1023.093431 126.177468 1023.037064 86.589064 993.481982 74.343339 948.153541 72.046385 939.646826 70.773431 930.581138 70.768734 921.769101 70.585541 649.807853 70.562055 377.846606 70.660697 105.890055 70.679486 49.316404 115.500624 4.096 172.135339 4.04433 398.998312 3.842349 625.861284 3.837651 852.724257 4.053725 908.330275 4.105394 952.940037 48.499083 953.973431 104.076917 954.471339 130.841835 954.109651 157.620844 954.109651 184.395156 954.137835 372.980257 954.175413 561.570055 954.161321 750.155156 954.161321 768.807927 948.026716 785.337541 934.841541 798.574385 866.877064 866.787817 798.936073 935.020037 730.450202 1002.707376 718.570862 1014.450495 701.496367 1019.039706 685.812257 1022.32778 665.073908 1026.672734 648.32822 1009.757945 648.300037 987.906349 648.210789 920.975266 648.173211 854.039486 648.300037 787.108404 648.375193 746.730862 677.596771 717.49989 718.204477 717.330789 771.043817 717.114716 823.887853 717.274422 876.73189 717.274422 879.526752 717.265028 882.326312 717.265028 886.182752 717.265028L886.182752 717.265028ZM716.499376 917.156404C759.977101 873.65989 804.342606 829.280294 847.618349 785.995156L716.499376 785.995156 716.499376 917.156404 716.499376 917.156404ZM512.206679 207.768661C579.109578 207.768661 646.012477 207.740477 712.915376 207.78745 730.318679 207.801541 742.625468 215.627156 747.98033 229.756477 756.106569 251.213505 741.13644 273.92 717.650202 275.714349 715.31567 275.892844 712.957651 275.841174 710.613725 275.841174 578.451963 275.845872 446.290202 275.869358 314.12844 275.761321 308.566899 275.756624 302.751706 275.329174 297.495486 273.689835 281.806679 268.790606 272.839633 253.623193 274.887633 236.727193 276.705468 221.719486 289.55244 209.520734 305.175486 208.088073 308.440073 207.78745 311.737541 207.782752 315.020917 207.782752 380.749505 207.759266 446.478092 207.763963 512.206679 207.768661L512.206679 207.768661ZM511.86378 479.55611C445.430606 479.55611 378.997431 479.518532 312.564257 479.598385 303.141578 479.60778 294.376514 478.062385 286.893798 471.852624 276.216954 462.98422 271.914275 448.760954 276.010275 435.641541 280.289468 421.934972 291.952734 412.789431 306.720881 411.601028 308.590385 411.450716 310.473982 411.488294 312.352881 411.488294 445.688954 411.483596 579.025028 411.474202 712.361101 411.492991 731.417835 411.497688 744.598312 420.788844 748.990239 437.139963 754.274642 456.807339 740.572771 476.930349 720.29945 479.138055 716.809394 479.518532 713.272367 479.542018 709.754128 479.542018 643.795376 479.560807 577.831927 479.55611 511.86378 479.55611L511.86378 479.55611ZM427.078459 615.56022C466.962789 615.56022 506.851817 615.414606 546.740844 615.640073 560.658789 615.715229 571.011523 622.568514 576.892477 635.128954 582.646606 647.40756 581.242128 659.451303 572.993761 670.250275 565.802275 679.66356 555.891083 683.454239 544.082202 683.43545 479.790972 683.322716 415.50444 683.38378 351.213211 683.38378 337.370422 683.38378 323.522936 683.463633 309.684844 683.360294 289.209541 683.209982 274.474275 668.794128 274.596404 649.187817 274.713835 629.957284 289.369248 615.649468 309.529835 615.574312 348.714275 615.433394 387.898716 615.532037 427.083156 615.532037 427.078459 615.541431 427.078459 615.550826 427.078459 615.56022L427.078459 615.56022Z" fill="" p-id="25994"></path></svg>