<?xml version="1.0" standalone="no"?><!DOCTYPE svg PUBLIC "-//W3C//DTD SVG 1.1//EN" "http://www.w3.org/Graphics/SVG/1.1/DTD/svg11.dtd"><svg t="1762872515639" class="icon" viewBox="0 0 1024 1024" version="1.1" xmlns="http://www.w3.org/2000/svg" p-id="5449" xmlns:xlink="http://www.w3.org/1999/xlink" width="200" height="200"><path d="M842.357029 511.400229a29.257143 29.257143 0 0 0-29.257143 29.257142v374.842515h-716.8v-716.8H474.112a29.257143 29.257143 0 0 0 0-58.514286h-394.971429c-16.149943 0-41.354971 18.592914-41.354971 34.757486v775.314285c0 16.149943 25.1904 23.7568 41.354971 23.7568h775.314286c16.149943 0 17.173943-7.606857 17.173943-23.7568v-409.6a29.257143 29.257143 0 0 0-29.271771-29.257142z" fill="" p-id="5450"></path><path d="M969.186743 191.868343L845.077943 67.730286a58.543543 58.543543 0 0 0-82.753829 0L258.165029 571.874743a58.368 58.368 0 0 0-14.511543 24.020114l-51.829029 166.824229a58.514286 58.514286 0 0 0 69.675886 74.24l175.952457-42.686172a58.514286 58.514286 0 0 0 27.574857-15.506285l504.129829-504.144458a58.514286 58.514286 0 0 0 0.029257-82.753828z m-258.603886 10.327771l20.6848 20.699429-392.323657 392.338286-20.699429-20.699429 392.338286-392.338286z m41.3696 41.384229l41.384229 41.384228L401.013029 677.302857l-41.384229-41.384228 392.323657-392.338286z m-504.246857 536.488228l16.559543-53.321142 39.672686 39.672685-56.232229 13.648457z m89.541486-21.723428l-63.166172-63.136914 24.517486-78.935772 92.0576 92.0576v0.014629l0.014629 0.014628 29.813028 29.813029-83.236571 20.1728z m105.135543-39.672686l-20.6848-20.6848 392.338285-392.338286 20.6848 20.6848-392.338285 392.338286z m413.023085-413.023086l-124.123428-124.123428 72.411428-72.411429 124.1088 124.138057-72.3968 72.3968zM503.369143 813.099886a14.628571 14.628571 0 0 0 14.628571 14.628571h204.8a14.628571 14.628571 0 1 0 0-29.257143h-204.8a14.628571 14.628571 0 0 0-14.628571 14.628572zM576.497371 725.328457a14.628571 14.628571 0 0 0 14.628572 14.628572h131.657143a14.628571 14.628571 0 1 0 0-29.257143h-131.657143a14.628571 14.628571 0 0 0-14.628572 14.628571zM722.783086 666.814171a14.628571 14.628571 0 1 0 0-29.257142h-58.514286a14.628571 14.628571 0 1 0 0 29.257142h58.514286z" fill="" p-id="5451"></path></svg>