<?xml version="1.0" standalone="no"?><!DOCTYPE svg PUBLIC "-//W3C//DTD SVG 1.1//EN" "http://www.w3.org/Graphics/SVG/1.1/DTD/svg11.dtd"><svg t="1763719010787" class="icon" viewBox="0 0 1024 1024" version="1.1" xmlns="http://www.w3.org/2000/svg" p-id="3137" xmlns:xlink="http://www.w3.org/1999/xlink" width="600" height="600"><path d="M73.142857 731.428571v146.285715a73.142857 73.142857 0 0 0 73.142857 73.142857h731.428572a73.142857 73.142857 0 0 0 73.142857-73.142857v-146.285715h73.142857v146.285715a146.285714 146.285714 0 0 1-146.285714 146.285714H146.285714a146.285714 146.285714 0 0 1-146.285714-146.285714v-146.285715h73.142857z m248.173714-365.714285v49.005714H203.337143v67.584H303.542857v49.005714H203.337143V609.28h122.294857V658.285714H146.285714V365.714286h175.030857zM441.782857 365.714286l82.797714 155.940571 28.452572 63.195429h2.048l-4.681143-50.029715a542.72 542.72 0 0 1-2.633143-52.150857V365.714286h53.979429v292.571428h-57.929143L461.385143 501.979429l-29.037714-62.829715h-1.828572l4.461714 50.176c1.682286 17.700571 2.486857 34.962286 2.486858 51.785143V658.285714h-54.052572V365.714286h58.368z m253.147429 0l37.888 142.628571c4.388571 16.164571 8.338286 31.890286 11.922285 47.030857 3.584 15.140571 7.533714 30.866286 11.922286 47.177143h1.901714c4.681143-16.310857 8.777143-32.036571 12.361143-47.177143 3.584-15.140571 7.533714-30.866286 11.922286-47.030857L819.931429 365.714286H877.714286l-87.113143 292.571428h-68.169143L635.318857 365.714286H694.857143zM877.714286 0a146.285714 146.285714 0 0 1 146.285714 146.285714v146.285715h-73.142857V146.285714a73.142857 73.142857 0 0 0-64.585143-72.630857L877.714286 73.142857H146.285714a73.142857 73.142857 0 0 0-73.142857 73.142857v146.285715H0V146.285714a146.285714 146.285714 0 0 1 146.285714-146.285714h731.428572z" p-id="3138"></path></svg>