<?xml version="1.0" standalone="no"?><!DOCTYPE svg PUBLIC "-//W3C//DTD SVG 1.1//EN" "http://www.w3.org/Graphics/SVG/1.1/DTD/svg11.dtd"><svg t="1769585335814" class="icon" viewBox="0 0 1024 1024" version="1.1" xmlns="http://www.w3.org/2000/svg" p-id="4474" xmlns:xlink="http://www.w3.org/1999/xlink" width="600" height="600"><path d="M959.9 310.4c2-43-4-86.1-17.7-127-22-52.2-66.2-91.8-120.4-108C786.4 66.6 750 62.7 713.5 64H310.4c-36.4-1.3-72.9 2.6-108.3 11.4-54.2 16.2-98.4 55.8-120.4 108-13.6 40.9-19.7 83.9-17.7 127v403.1c-1.9 43.1 4.1 86.1 17.7 127 22 52.2 66.2 91.8 120.4 108 35.4 8.8 71.8 12.7 108.3 11.4h403.1c36.4 1.3 72.9-2.6 108.3-11.4 54.2-16.2 98.4-55.8 120.4-108 13.6-40.9 19.7-83.9 17.7-127V310.4zM241.7 680h-33.3V481h33.3v199zM225 447.4c-11.4-0.1-20.6-9.4-20.5-20.9 0.1-11.4 9.4-20.6 20.9-20.5 11.3 0.1 20.5 9.3 20.5 20.7-0.1 11.5-9.4 20.8-20.9 20.7zM425.1 685c-87.9 0-143.3-62.8-143.3-162.7s55.3-162.9 143.3-162.9 143.5 63 143.5 162.9S513.3 685 425.1 685z m290.2 0c-66 0-112.4-36.4-115.7-90.8h30c3.3 37.9 38.9 63.6 88.4 63.6 47.3 0 81.2-25.8 81.2-61.2 0-29.5-20.4-47-67.2-58.8l-39.2-10.1c-58.4-14.9-84.4-39.6-84.4-81.2 0-51 45.9-87.3 108-87.3 61.6 0 106.4 36.4 108.3 86.4h-30c-2.8-35.6-34.4-59.3-79.2-59.3-43.7 0-76.1 24.3-76.1 59 0 27.1 19.6 43.1 66 54.9l34.2 8.8c63.4 16 90.1 40.3 90.1 84.2 0.1 55.5-44.6 91.8-114.4 91.8zM425.1 387.1c-69.1 0-112.6 52.3-112.6 135.2S356 657.2 425.1 657.2 538 604.9 538 522.3s-43.7-135.2-112.9-135.2z" p-id="4475"></path></svg>