<?xml version="1.0" standalone="no"?><!DOCTYPE svg PUBLIC "-//W3C//DTD SVG 1.1//EN" "http://www.w3.org/Graphics/SVG/1.1/DTD/svg11.dtd"><svg t="1762266798854" class="icon" viewBox="0 0 1024 1024" version="1.1" xmlns="http://www.w3.org/2000/svg" p-id="20439" xmlns:xlink="http://www.w3.org/1999/xlink" width="200" height="200"><path d="M0 0h1024v1024H0z" fill="#FFFFFF" p-id="20440"></path><path d="M276 854.848h32-32z m0-68.576h-32 32zM96 603.424H64h32zM492 205.76h-32 32zM600 96v32-32z m108 109.728h-32 32z m-288 73.12v-32 32z m-72 0v32-32z m432 0v32-32z m76 0v-32 32zM276 420.576h32-32z m0-68.576h-32 32zM928 854.72h-32 32z m0-502.624h-32 32zM348.096 928v32-32z m143.904-73.152h-32 32z m216 0h-32 32z m0 73.152h-32a32 32 0 0 0 32 32v-32z m-216 0v32a32 32 0 0 0 32-32h-32z m364.448 0l0.096 32h0.128l-0.256-32z m-0.704-32a32 32 0 1 0 0.256 64l-0.256-64zM308 854.848v-68.576h-64v68.576h64z m-104-173.696C162.496 681.152 128 646.816 128 603.424H64c0 77.792 62.208 141.728 140 141.728v-64zM128 603.424c0-43.392 34.496-77.696 76-77.696v-64C126.208 461.728 64 525.632 64 603.424h64zM524 205.76C524 162.304 558.496 128 600 128V64c-77.792 0-140 63.936-140 141.728h64zM600 128c41.504 0 76 34.304 76 77.728h64C740 127.936 677.792 64 600 64v64z m-180 118.848h-72v64h72v-64z m360 64h76v-64h-76v64z m-472 109.728V352h-64v68.576h64zM960 854.72V352.096h-64V854.72h64zM348 246.848c-57.92 0-104 47.584-104 105.152h64c0-23.2 18.4-41.152 40-41.152v-64z m508 64c21.568 0 40 17.984 40 41.248h64c0-57.568-46.048-105.248-104-105.248v64zM204 525.76c57.92 0 104-47.584 104-105.152h-64c0 23.2-18.4 41.152-40 41.152v64z m472-320c0 57.6 46.08 105.12 104 105.12v-64c-21.632 0-40-17.92-40-41.12h-64zM308 786.24c0-57.6-46.08-105.12-104-105.12v64c21.632 0 40 17.92 40 41.12h64z m152-580.544c0 23.2-18.368 41.12-40 41.12v64c57.92 0 104-47.552 104-105.12h-64z m-216 649.12c0 57.664 46.272 105.152 104.096 105.152v-64c-21.664 0-40.096-18.016-40.096-41.152h-64z m280 0c0-43.392 34.496-77.696 76-77.696v-64c-77.792 0-140 63.904-140 141.696h64z m76-77.696c41.504 0 76 34.304 76 77.696h64c0-77.76-62.208-141.696-140-141.696v64z m76 77.696V928h64v-73.152h-64z m-216 0V928h64v-73.152h-64zM348.096 960h143.904v-64h-143.904v64zM896 854.72c0 23.104-18.336 41.12-39.808 41.28l0.48 64C914.24 959.552 960 912.096 960 854.72h-64zM856.32 896h-0.576l0.256 64h0.544l-0.224-64z m-148.32 64h148.448v-64h-148.448v64z" fill="#000000" p-id="20441"></path></svg>