<?xml version="1.0" standalone="no"?><!DOCTYPE svg PUBLIC "-//W3C//DTD SVG 1.1//EN" "http://www.w3.org/Graphics/SVG/1.1/DTD/svg11.dtd"><svg t="1768730183731" class="icon" viewBox="0 0 1024 1024" version="1.1" xmlns="http://www.w3.org/2000/svg" p-id="10015" xmlns:xlink="http://www.w3.org/1999/xlink" width="600" height="600"><path d="M556.8 960H166.4c-25.6 0-51.2-12.8-70.4-25.6-19.2-19.2-32-44.8-32-70.4v-115.2c6.4-19.2 12.8-38.4 32-51.2 12.8-6.4 19.2-12.8 32-12.8s25.6 6.4 44.8 12.8H192c12.8 6.4 19.2 6.4 32 6.4s25.6 0 32-6.4c12.8-6.4 19.2-12.8 25.6-19.2 6.4-6.4 12.8-19.2 19.2-25.6 6.4-12.8 6.4-19.2 6.4-32s0-25.6-6.4-32c-6.4-12.8-12.8-19.2-19.2-25.6s-19.2-12.8-25.6-19.2c-12.8-6.4-19.2-6.4-32-6.4s-19.2 0-32 6.4h-6.4-6.4c-6.4 6.4-19.2 6.4-25.6 12.8-12.8 6.4-25.6 6.4-38.4 6.4-19.2 0-32-12.8-38.4-25.6-6.4-12.8-12.8-25.6-12.8-44.8V390.4c0-25.6 12.8-51.2 32-70.4 19.2-19.2 44.8-32 70.4-32h83.2c-6.4-19.2-6.4-32-6.4-51.2 0-25.6 6.4-51.2 12.8-70.4l38.4-57.6c19.2-19.2 38.4-32 57.6-38.4 25.6-12.8 44.8-12.8 70.4-12.8s51.2 6.4 70.4 12.8l57.6 38.4c19.2 19.2 32 38.4 38.4 57.6 12.8 25.6 12.8 44.8 12.8 70.4 0 19.2 0 38.4-6.4 51.2h25.6c25.6 0 51.2 12.8 70.4 32 19.2 19.2 25.6 44.8 25.6 70.4v19.2c0 12.8-12.8 32-38.4 32-25.6 0-32-12.8-38.4-25.6v-25.6c0-6.4 0-12.8-6.4-19.2-6.4-6.4-6.4-6.4-19.2-6.4H441.6l51.2-64c19.2-19.2 25.6-38.4 25.6-64 0-12.8 0-32-6.4-44.8-6.4-12.8-12.8-25.6-25.6-32-12.8-12.8-19.2-19.2-32-25.6-12.8-6.4-25.6-6.4-44.8-6.4-12.8 0-25.6 0-44.8 6.4-12.8 6.4-25.6 12.8-32 25.6-12.8 12.8-19.2 19.2-25.6 32-6.4 12.8-6.4 25.6-6.4 44.8 0 12.8 0 25.6 6.4 38.4 6.4 12.8 12.8 25.6 19.2 32l51.2 64H153.6c-6.4 0-12.8 0-19.2 6.4-6.4 6.4-6.4 12.8-6.4 19.2v89.6s6.4 0 6.4-6.4c6.4 0 6.4-6.4 12.8-6.4 19.2-6.4 38.4-12.8 64-12.8 19.2 0 44.8 6.4 64 12.8 19.2 6.4 38.4 19.2 51.2 32 12.8 12.8 25.6 32 32 51.2 6.4 19.2 12.8 38.4 12.8 64 0 19.2-6.4 44.8-12.8 64-6.4 19.2-19.2 38.4-32 51.2-12.8 12.8-32 25.6-51.2 32-19.2 6.4-38.4 12.8-64 12.8-19.2 0-44.8-6.4-64-12.8-6.4 0-12.8-6.4-19.2-6.4v96c0 6.4 0 12.8 6.4 19.2 6.4 6.4 12.8 6.4 19.2 6.4h396.8c19.2 6.4 25.6 19.2 25.6 38.4 6.4 25.6 0 32-19.2 38.4z m204.8-76.8c-6.4-6.4-25.6-19.2-32-19.2-6.4 0-25.6 12.8-32 19.2-6.4 6.4-19.2 12.8-25.6 12.8-6.4 0-12.8 0-12.8-6.4l-51.2-25.6c-12.8-12.8-19.2-25.6-12.8-44.8 0 0 6.4-6.4 6.4-12.8 0-12.8-6.4-19.2-12.8-25.6-6.4-6.4-19.2-12.8-25.6-12.8-12.8 0-25.6-12.8-32-32 0 0-6.4-25.6-6.4-44.8 0-19.2 6.4-44.8 6.4-44.8 6.4-19.2 12.8-32 32-32s38.4-19.2 38.4-38.4c0-6.4-6.4-12.8-6.4-12.8-6.4-19.2 0-38.4 12.8-44.8l57.6-32c6.4 0 12.8-6.4 12.8-6.4 12.8 0 19.2 6.4 25.6 12.8 6.4 6.4 25.6 19.2 32 19.2 6.4 0 25.6-12.8 32-19.2 6.4-6.4 19.2-12.8 25.6-12.8 6.4 0 12.8 0 12.8 6.4l51.2 25.6c12.8 12.8 19.2 25.6 12.8 44.8 0 0-6.4 6.4-6.4 12.8 0 19.2 19.2 38.4 38.4 38.4 12.8 0 25.6 12.8 32 32 0 0 6.4 25.6 6.4 44.8 0 19.2-6.4 44.8-6.4 44.8-6.4 19.2-12.8 32-32 32-12.8 0-19.2 6.4-25.6 12.8s-12.8 19.2-12.8 25.6c0 6.4 6.4 12.8 6.4 12.8 6.4 19.2 0 38.4-12.8 44.8l-57.6 32c-6.4 0-12.8 6.4-12.8 6.4-12.8 0-19.2-6.4-25.6-12.8z m-38.4-70.4c19.2 0 32 6.4 51.2 19.2 6.4 6.4 12.8 6.4 12.8 12.8l32-19.2c0-6.4 0-12.8-6.4-25.6 0-44.8 32-83.2 76.8-89.6v-19.2-19.2c-44.8-6.4-76.8-44.8-76.8-89.6 0-6.4 0-19.2 6.4-25.6l-32-19.2-12.8 12.8c-19.2 12.8-32 19.2-51.2 19.2s-32-6.4-51.2-19.2c-6.4-6.4-12.8-6.4-12.8-12.8l-32 19.2c0 6.4 6.4 12.8 6.4 25.6 0 44.8-32 83.2-76.8 89.6v38.4c44.8 6.4 76.8 44.8 76.8 89.6 0 6.4 0 19.2-6.4 25.6l25.6 12.8 12.8-12.8c25.6-6.4 44.8-12.8 57.6-12.8z m0-38.4c-44.8 0-83.2-38.4-83.2-83.2 0-44.8 38.4-83.2 83.2-83.2 44.8 0 83.2 38.4 83.2 83.2 6.4 44.8-32 83.2-83.2 83.2z m0-115.2c-6.4 0-19.2 6.4-25.6 6.4-6.4 6.4-6.4 12.8-6.4 25.6 0 19.2 12.8 32 32 32s32-12.8 32-32-12.8-32-32-32z" fill="#333333" p-id="10016"></path></svg>