<?xml version="1.0" standalone="no"?><!DOCTYPE svg PUBLIC "-//W3C//DTD SVG 1.1//EN" "http://www.w3.org/Graphics/SVG/1.1/DTD/svg11.dtd"><svg t="1762266151968" class="icon" viewBox="0 0 1039 1024" version="1.1" xmlns="http://www.w3.org/2000/svg" p-id="2295" xmlns:xlink="http://www.w3.org/1999/xlink" width="202.9296875" height="200"><path d="M517.15869 689.974811c-7.738035 0-14.186398-2.579345-20.634761-6.448363L265.672544 540.372796 16.765743 398.508816c-10.31738-5.15869-16.765743-16.765743-16.765743-28.372796 0-11.607053 6.448363-21.924433 15.476071-28.372796L496.523929 56.745592c12.896725-7.738035 27.083123-7.738035 39.979849 0l490.075567 291.465995c11.607053 7.738035 16.765743 23.214106 9.027708 34.821159-7.738035 11.607053-23.214106 16.765743-34.821159 9.027707L517.15869 104.463476 70.93199 370.13602l221.823678 126.387909L517.15869 635.808564l277.279597-170.236776c11.607053-7.738035 28.372796-3.869018 36.110831 9.027708 7.738035 11.607053 3.869018 28.372796-9.027707 36.110831L537.793451 683.526448c-6.448363 3.869018-14.186398 6.448363-20.634761 6.448363z" fill="" p-id="2296"></path><path d="M517.15869 981.440806c-9.027708 0-16.765743-3.869018-21.924433-12.896725-7.738035-11.607053-3.869018-28.372796 9.027708-36.110832l472.020151-290.176322c11.607053-7.738035 28.372796-3.869018 36.110831 9.027708 7.738035 11.607053 3.869018 28.372796-9.027708 36.110831L530.055416 977.571788c-3.869018 2.579345-9.027708 3.869018-12.896726 3.869018z" fill="" p-id="2297"></path><path d="M323.707809 864.080605c-5.15869 0-9.027708-1.289673-14.186398-3.869018L30.952141 683.526448c-11.607053-7.738035-15.476071-23.214106-7.738035-36.110831 7.738035-11.607053 23.214106-15.476071 36.110831-7.738035l279.858942 176.685138c11.607053 7.738035 15.476071 23.214106 7.738035 36.110832-6.448363 6.448363-14.186398 11.607053-23.214105 11.607053z" fill="" p-id="2298"></path><path d="M517.15869 834.418136c-7.738035 0-14.186398-2.579345-20.634761-6.448363L30.952141 537.793451c-11.607053-7.738035-15.476071-23.214106-7.738035-36.110831 7.738035-11.607053 23.214106-15.476071 36.110831-7.738036L517.15869 780.251889l459.123426-281.148614c11.607053-7.738035 28.372796-3.869018 36.110831 9.027707 7.738035 11.607053 3.869018 28.372796-9.027708 36.110832l-465.571788 283.727959c-6.448363 3.869018-14.186398 6.448363-20.634761 6.448363z" fill="" p-id="2299"></path></svg>