<?xml version="1.0" standalone="no"?><!DOCTYPE svg PUBLIC "-//W3C//DTD SVG 1.1//EN" "http://www.w3.org/Graphics/SVG/1.1/DTD/svg11.dtd"><svg t="1762266425851" class="icon" viewBox="0 0 1024 1024" version="1.1" xmlns="http://www.w3.org/2000/svg" p-id="12069" xmlns:xlink="http://www.w3.org/1999/xlink" width="200" height="200"><path d="M1003.2 385.6c-19.2-70.4-51.2-124.8-121.6-124.8h-92.8v108.8c0 83.2-70.4 153.6-153.6 153.6H393.6c-67.2 0-121.6 57.6-121.6 124.8V880c0 67.2 57.6 105.6 121.6 124.8 76.8 22.4 150.4 25.6 241.6 0 60.8-19.2 121.6-54.4 121.6-124.8v-92.8H515.2v-32h363.2c70.4 0 96-51.2 121.6-124.8 28.8-72 28.8-145.6 3.2-244.8zM652.8 851.2c25.6 0 44.8 22.4 44.8 48s-19.2 48-44.8 48c-25.6 0-44.8-22.4-44.8-48 0-28.8 22.4-48 44.8-48zM385.6 494.4h241.6c67.2 0 121.6-57.6 121.6-124.8V137.6c0-67.2-54.4-115.2-121.6-128C544-3.2 457.6-3.2 385.6 9.6c-102.4 19.2-121.6 57.6-121.6 128v92.8h241.6v32H171.2c-70.4 0-134.4 41.6-153.6 124.8-22.4 92.8-22.4 150.4 0 248 16 73.6 57.6 124.8 131.2 124.8h83.2v-112c0-80 70.4-153.6 153.6-153.6z m-16-321.6c-25.6 0-44.8-22.4-44.8-48s19.2-48 44.8-48 44.8 22.4 44.8 48c-1.6 25.6-20.8 48-44.8 48z" fill="#888888" p-id="12070"></path></svg>