<?xml version="1.0" standalone="no"?><!DOCTYPE svg PUBLIC "-//W3C//DTD SVG 1.1//EN" "http://www.w3.org/Graphics/SVG/1.1/DTD/svg11.dtd"><svg t="1763427308321" class="icon" viewBox="0 0 1024 1024" version="1.1" xmlns="http://www.w3.org/2000/svg" p-id="2276" xmlns:xlink="http://www.w3.org/1999/xlink" width="200" height="200"><path d="M248.6 458.2c-24.6 33.4-37.8 73.6-37.8 115.8 0 52.4 20.4 101.6 57.4 138.6 50 50 123.2 69.2 191.4 50.2 16-4.4 32.6 4.8 37 20.8 4.4 16-4.8 32.6-20.8 37-22.6 6.4-45.8 9.4-68.8 9.4-57.2 0-113.4-19.2-158.8-55l-120.4 120.4c-5.8 5.8-13.6 8.8-21.2 8.8s-15.4-3-21.2-8.8c-11.8-11.8-11.8-30.8 0-42.4l120.4-120.4c-35.6-45-55-100.2-55-158.6 0-68.4 26.6-132.6 75-181 11.8-11.8 30.8-11.8 42.4 0l224.2 224.2c11.8 11.8 11.8 30.8 0 42.4-11.8 11.8-30.8 11.8-42.4 0L248.6 458.2z m330.8 118.6c-5.8 5.8-13.6 8.8-21.2 8.8s-15.4-3-21.2-8.8c-11.8-11.8-11.8-30.8 0-42.4l43-43-93.6-93.6-43 43c-5.8 5.8-13.6 8.8-21.2 8.8s-15.4-3-21.2-8.8c-11.8-11.8-11.8-30.8 0-42.4l43-43-69-69c-11.8-11.8-11.8-30.8 0-42.4 48.4-48.4 112.6-75 181-75 58.2 0 113.6 19.4 158.6 55l120.4-120.4c11.8-11.8 30.8-11.8 42.4 0 11.8 11.8 11.8 30.8 0 42.4l-120.4 120.4c35.6 45 55 100.2 55 158.6 0 68.4-26.6 132.6-75 181-5.8 5.8-13.6 8.8-21.2 8.8s-15.4-3-21.2-8.8l-72-72-43.2 42.8z m-139.4-310l274 274c24.6-33.4 37.8-73.6 37.8-115.8 0-52.4-20.4-101.6-57.4-138.6s-86.2-57.4-138.6-57.4c-42.2 0-82.4 13.2-115.8 37.8z m158.6 462.4h316.8c12.2 0 23-7.4 27.8-18.6 4.6-11.2 2-24.2-6.6-32.6l-92.4-92.4c-11.8-11.8-30.8-11.8-42.4 0-11.8 11.8-11.8 30.8 0 42.4l41.2 41.2H598.6c-16.6 0-30 13.4-30 30s13.4 30 30 30z m316.8 45.6H598.6c-12.2 0-23 7.4-27.8 18.6-4.6 11.2-2 24.2 6.6 32.6l92.4 92.4c5.8 5.8 13.6 8.8 21.2 8.8s15.4-3 21.2-8.8c11.8-11.8 11.8-30.8 0-42.4l-41.2-41.2h244.2c16.6 0 30-13.4 30-30s-13.2-30-29.8-30z" p-id="2277"></path></svg>