<?xml version="1.0" standalone="no"?><!DOCTYPE svg PUBLIC "-//W3C//DTD SVG 1.1//EN" "http://www.w3.org/Graphics/SVG/1.1/DTD/svg11.dtd"><svg t="1763081418095" class="icon" viewBox="0 0 1024 1024" version="1.1" xmlns="http://www.w3.org/2000/svg" p-id="2288" xmlns:xlink="http://www.w3.org/1999/xlink" width="200" height="200"><path d="M214.784 360.512a40.32 40.32 0 0 1 0-80.768h453.12a40.32 40.32 0 1 1 0 80.768h-453.12z m17.408 209.792a40.32 40.32 0 1 1 0-80.768H406.4a40.32 40.32 0 0 1 0 80.768H232.192z m754.944 343.68l-161.024 92.992a73.792 73.792 0 0 1-110.72-63.936V757.12c0-56.768 61.632-92.288 110.72-63.808l160.96 92.928a73.792 73.792 0 0 1 0 127.808z m-50.816-63.936l-140.16-80.832v161.792l140.16-80.96z m-16.256-307.584a40.32 40.32 0 0 1-80.768 0V141.312a60.8 60.8 0 0 0-60.544-60.544h-637.44a60.8 60.8 0 0 0-60.544 60.544v637.44a60.8 60.8 0 0 0 60.544 60.544h414.656a40.32 40.32 0 0 1 0 80.768h-414.72A141.568 141.568 0 0 1 0 778.752v-637.44C0 63.488 63.488 0 141.312 0h637.44c77.824 0 141.312 63.488 141.312 141.312v401.152z" p-id="2289"></path></svg>