<?xml version="1.0" standalone="no"?><!DOCTYPE svg PUBLIC "-//W3C//DTD SVG 1.1//EN" "http://www.w3.org/Graphics/SVG/1.1/DTD/svg11.dtd"><svg t="1763638046167" class="icon" viewBox="0 0 1024 1024" version="1.1" xmlns="http://www.w3.org/2000/svg" p-id="2288" xmlns:xlink="http://www.w3.org/1999/xlink" width="600" height="600"><path d="M512 229.034667c188.513524 0 341.333333 152.81981 341.333333 341.333333s-152.81981 341.333333-341.333333 341.333333-341.333333-152.81981-341.333333-341.333333 152.81981-341.333333 341.333333-341.333333z m0 73.142857c-148.114286 0-268.190476 120.07619-268.190476 268.190476s120.07619 268.190476 268.190476 268.190476 268.190476-120.07619 268.190476-268.190476-120.07619-268.190476-268.190476-268.190476z m31.402667 67.608381v144.432762l79.798857-79.798857 51.687619 51.712-142.189714 142.238476c-23.04 23.04-62.439619 6.704762-62.439619-25.84381v-232.740571h73.142857zM636.099048 109.714286v77.58019H377.539048V109.714286H636.099048z" p-id="2289"></path></svg>