<?xml version="1.0" standalone="no"?><!DOCTYPE svg PUBLIC "-//W3C//DTD SVG 1.1//EN" "http://www.w3.org/Graphics/SVG/1.1/DTD/svg11.dtd"><svg t="1762266378623" class="icon" viewBox="0 0 1024 1024" version="1.1" xmlns="http://www.w3.org/2000/svg" p-id="10081" xmlns:xlink="http://www.w3.org/1999/xlink" width="200" height="200"><path d="M672 704a128 128 0 0 1 124.096 96.384l3.904-0.384h128a32 32 0 1 1 0 64h-128l-3.968-0.32a128 128 0 0 1-248.064 0L544 864h-448a32 32 0 1 1 0-64h448l3.904 0.384A128 128 0 0 1 672 704z m0 64a64 64 0 1 0 0 128 64 64 0 0 0 0-128z m-320-384a128 128 0 0 1 124.096 96.384L480 480h448a32 32 0 0 1 5.76 63.488l-5.76 0.512h-448l-3.968-0.32a128 128 0 0 1-248.064 0L224 544h-128a32 32 0 0 1-5.76-63.488L96 480h128l3.904 0.384A128 128 0 0 1 352 384z m0 64a64 64 0 1 0 0 128 64 64 0 0 0 0-128z m320-384a128 128 0 0 1 124.096 96.384L800 160h128a32 32 0 0 1 5.76 63.488l-5.76 0.512h-128l-3.968-0.32a128 128 0 0 1-248.064 0L544 224h-448a32 32 0 0 1-5.76-63.488L96 160h448l3.904 0.384A128 128 0 0 1 672 64z m0 64a64 64 0 1 0 0 128 64 64 0 0 0 0-128z" fill="#000000" p-id="10082"></path></svg>