<?xml version="1.0" standalone="no"?><!DOCTYPE svg PUBLIC "-//W3C//DTD SVG 1.1//EN" "http://www.w3.org/Graphics/SVG/1.1/DTD/svg11.dtd"><svg t="1762266959261" class="icon" viewBox="0 0 1024 1024" version="1.1" xmlns="http://www.w3.org/2000/svg" p-id="25017" xmlns:xlink="http://www.w3.org/1999/xlink" width="200" height="200"><path d="M365.653 709.12c0 7.964 2.987 14.436 8.96 19.413S387.556 736 395.52 736s15.431-2.489 22.4-7.467c6.969-4.978 14.436-10.453 22.4-16.427s14.933-13.938 20.907-23.893l17.92-26.88 26.88-44.8c1.991 5.973 3.982 12.942 5.973 20.907l11.947 59.733c1.991 5.973 4.48 11.947 7.467 17.92 2.987 5.973 6.969 10.951 11.947 14.933 4.978 3.982 10.453 5.973 16.427 5.973s12.942-2.987 20.907-8.96c7.964-5.973 15.431-12.444 22.4-19.413s13.44-14.436 19.413-22.4c5.973-7.964 9.956-14.933 11.947-20.907l-8.96-5.973-8.96 11.947c-5.973 9.956-13.938 18.916-23.893 26.88-1.991 1.991-4.978 2.987-8.96 2.987-3.982 0-6.969-0.995-8.96-2.987l-5.973-8.96c-1.991-5.973-3.982-12.942-5.973-20.907L538.88 565.76c7.964-15.929 16.924-29.867 26.88-41.813 5.973-7.964 11.947-14.933 17.92-20.907s11.947-8.96 17.92-8.96 11.449 1.493 16.427 4.48 10.453 4.48 16.427 4.48c15.929 0 23.893-7.964 23.893-23.893 0-7.964-2.987-13.938-8.96-17.92s-13.44-5.476-22.4-4.48c-8.96 0.996-17.92 4.48-26.88 10.453-8.96 5.973-17.92 13.44-26.88 22.4-8.96 8.96-16.427 19.413-22.4 31.36l-14.933 23.893-14.933-47.787c-5.973-15.929-14.933-29.867-26.88-41.813l-80.64 14.933v11.947c5.973-1.991 12.444-2.987 19.413-2.987s13.44 1.493 19.413 4.48 11.449 6.969 16.427 11.947 8.462 10.453 10.453 16.427l20.907 80.64-17.92 38.827-32.853 47.787-16.427 16.427c-4.978 4.978-8.96 7.467-11.947 7.467s-5.476-0.996-7.467-2.987l-14.933-11.947c-7.964-3.982-15.431-3.484-22.4 1.493s-10.454 11.449-10.454 19.413zM747.947 736c17.92-19.911 31.36-41.316 40.32-64.213 8.96-22.898 13.44-48.284 13.44-76.16 0-51.769-17.92-98.56-53.76-140.373H709.12c13.938 19.911 25.387 41.813 34.347 65.707 8.96 23.893 13.44 48.782 13.44 74.667s-4.48 50.773-13.44 74.667S723.058 716.089 709.12 736h38.827z m-433.067 0c-31.858-39.822-47.787-86.613-47.787-140.373 0-23.893 3.982-48.284 11.947-73.173 7.964-24.889 19.911-47.289 35.84-67.2h-38.827c-35.84 41.813-53.76 88.604-53.76 140.373 0 25.884 4.48 51.271 13.44 76.16 8.96 24.889 22.4 46.293 40.32 64.213h38.827zM960 147.627v728.747l-26.88 26.88H90.88L64 876.373V147.627l26.88-26.88h842.24l26.88 26.88z m-56.747 197.12H120.747v501.76h782.507v-501.76z m0-170.24H120.747V288h782.507V174.507z" p-id="25018"></path></svg>