<?xml version="1.0" standalone="no"?><!DOCTYPE svg PUBLIC "-//W3C//DTD SVG 1.1//EN" "http://www.w3.org/Graphics/SVG/1.1/DTD/svg11.dtd"><svg t="1769585355631" class="icon" viewBox="0 0 1024 1024" version="1.1" xmlns="http://www.w3.org/2000/svg" p-id="5483" xmlns:xlink="http://www.w3.org/1999/xlink" width="600" height="600"><path d="M927.758629 37.7856h-833.828572c-32.314514 0-56.144457 22.586514-56.144457 54.901029v833.828571c0 32.314514 38.458514 47.498971 70.773029 47.498971h819.2c32.314514 0 46.255543-15.184457 46.255542-47.498971v-819.2c0-32.314514-13.941029-69.5296-46.255542-69.5296z m-12.258743 58.514286v117.028571h-819.2v-117.028571h819.2z m-819.2 819.2v-672.914286h819.2v672.914286h-819.2z" fill="" p-id="5484"></path><path d="M146.285714 169.442743h29.257143a14.628571 14.628571 0 1 0 0-29.257143h-29.257143a14.628571 14.628571 0 1 0 0 29.257143zM234.057143 169.442743h29.257143a14.628571 14.628571 0 1 0 0-29.257143h-29.257143a14.628571 14.628571 0 1 0 0 29.257143zM321.828571 169.442743h29.257143a14.628571 14.628571 0 1 0 0-29.257143h-29.257143a14.628571 14.628571 0 1 0 0 29.257143zM388.871314 315.728457a14.628571 14.628571 0 0 0-14.628571-14.628571h-204.8a14.628571 14.628571 0 0 0-14.628572 14.628571v380.342857a14.628571 14.628571 0 0 0 14.628572 14.628572h204.8a14.628571 14.628571 0 0 0 14.628571-14.628572v-380.342857z m-29.257143 327.255772l-68.344685-126.932115 68.344685-126.932114v253.864229z m-7.299657 38.458514H198.933943l76.6976-142.423772 76.682971 142.423772z m-76.682971-200.528457L194.56 330.357029h162.128457l-81.056914 150.557257z m-15.652572 35.137828l-75.907657 140.990172V375.0912l75.907657 140.960914zM871.614171 315.728457a14.628571 14.628571 0 0 0-14.628571-14.628571h-409.6a14.628571 14.628571 0 0 0-14.628571 14.628571v380.342857a14.628571 14.628571 0 0 0 14.628571 14.628572h409.6a14.628571 14.628571 0 0 0 14.628571-14.628572v-380.342857z m-409.6 33.4848l175.528229 165.961143-175.528229 162.962286V349.213257z m27.633372-18.856228h340.348343L658.285714 489.793829 489.647543 330.357029z m168.462628 198.158628l161.748115 152.927086H493.407086l164.703085-152.927086z m20.743315-13.165714l163.503543-151.800686v306.3808L678.853486 515.349943zM871.614171 769.214171a14.628571 14.628571 0 0 0-14.628571-14.628571h-687.542857a14.628571 14.628571 0 0 0-14.628572 14.628571v102.4a14.628571 14.628571 0 0 0 14.628572 14.628572h687.542857a14.628571 14.628571 0 0 0 14.628571-14.628572v-102.4z m-29.257142 87.771429h-658.285715v-73.142857h658.285715v73.142857z" fill="" p-id="5485"></path></svg>